<mxfile host="app.diagrams.net" agent="Mozilla/5.0 (Windows NT 10.0; Win64; x64) AppleWebKit/537.36 (KHTML, like Gecko) Chrome/138.0.0.0 Safari/537.36 Edg/138.0.0.0" version="27.2.0">
  <diagram name="Page-1" id="D7aggsgGusqNKwHGmpUE">
    <mxGraphModel dx="1158" dy="773" grid="1" gridSize="10" guides="1" tooltips="1" connect="1" arrows="1" fold="1" page="1" pageScale="1" pageWidth="850" pageHeight="1100" math="0" shadow="0">
      <root>
        <mxCell id="0" />
        <mxCell id="1" parent="0" />
        <mxCell id="2XYO7jUWF8z6qgWEu6B7-32" value="" style="rounded=1;whiteSpace=wrap;html=1;" vertex="1" parent="1">
          <mxGeometry x="660" y="290" width="400" height="640" as="geometry" />
        </mxCell>
        <mxCell id="2XYO7jUWF8z6qgWEu6B7-1" value="Lenze PLC Designer" style="swimlane;fontSize=17;" vertex="1" parent="1">
          <mxGeometry x="30" y="340" width="420" height="270" as="geometry" />
        </mxCell>
        <mxCell id="2XYO7jUWF8z6qgWEu6B7-2" value="&lt;h2 style=&quot;text-wrap-mode: wrap; box-sizing: border-box; font-family: Montserrat, sans-serif; line-height: 1.1; color: rgb(51, 51, 51); margin-top: 20px; margin-bottom: 10px; text-align: start; background-color: rgb(255, 255, 255);&quot;&gt;&lt;br&gt;&lt;/h2&gt;" style="verticalLabelPosition=bottom;verticalAlign=top;html=1;shape=mxgraph.basic.polygon;polyCoords=[[0.25,0],[0.75,0],[1,0.25],[1,0.75],[0.75,1],[0.25,1],[0,0.75],[0,0.25]];polyline=0;" vertex="1" parent="2XYO7jUWF8z6qgWEu6B7-1">
          <mxGeometry x="127.5" y="50" width="150" height="80" as="geometry" />
        </mxCell>
        <mxCell id="2XYO7jUWF8z6qgWEu6B7-3" value="CODESYS Virtual Safe Control SL Plug-In" style="text;html=1;align=center;verticalAlign=middle;whiteSpace=wrap;rounded=0;fontSize=20;" vertex="1" parent="2XYO7jUWF8z6qgWEu6B7-1">
          <mxGeometry x="45" y="150" width="315" height="50" as="geometry" />
        </mxCell>
        <mxCell id="2XYO7jUWF8z6qgWEu6B7-5" value="Industrial PC" style="text;html=1;align=center;verticalAlign=middle;whiteSpace=wrap;rounded=0;fontSize=18;" vertex="1" parent="1">
          <mxGeometry x="777" y="950" width="170" height="20" as="geometry" />
        </mxCell>
        <mxCell id="2XYO7jUWF8z6qgWEu6B7-11" value="" style="shape=link;html=1;rounded=0;exitX=0.5;exitY=1;exitDx=0;exitDy=0;" edge="1" parent="1" source="2XYO7jUWF8z6qgWEu6B7-1">
          <mxGeometry width="100" relative="1" as="geometry">
            <mxPoint x="380" y="710" as="sourcePoint" />
            <mxPoint x="240" y="920" as="targetPoint" />
          </mxGeometry>
        </mxCell>
        <mxCell id="2XYO7jUWF8z6qgWEu6B7-12" value="" style="shape=link;html=1;rounded=0;" edge="1" parent="1" source="2XYO7jUWF8z6qgWEu6B7-39" target="2XYO7jUWF8z6qgWEu6B7-13">
          <mxGeometry width="100" relative="1" as="geometry">
            <mxPoint x="240" y="925" as="sourcePoint" />
            <mxPoint x="590" y="840" as="targetPoint" />
          </mxGeometry>
        </mxCell>
        <mxCell id="2XYO7jUWF8z6qgWEu6B7-13" value="" style="sketch=0;pointerEvents=1;shadow=0;dashed=0;html=1;strokeColor=none;fillColor=#434445;aspect=fixed;labelPosition=center;verticalLabelPosition=bottom;verticalAlign=top;align=center;outlineConnect=0;shape=mxgraph.vvd.ethernet_port;" vertex="1" parent="1">
          <mxGeometry x="600" y="900" width="50" height="50" as="geometry" />
        </mxCell>
        <mxCell id="2XYO7jUWF8z6qgWEu6B7-30" style="edgeStyle=orthogonalEdgeStyle;rounded=0;orthogonalLoop=1;jettySize=auto;html=1;" edge="1" parent="1">
          <mxGeometry relative="1" as="geometry">
            <mxPoint x="860" y="520" as="targetPoint" />
            <mxPoint x="860" y="530" as="sourcePoint" />
          </mxGeometry>
        </mxCell>
        <mxCell id="2XYO7jUWF8z6qgWEu6B7-15" value="&lt;span style=&quot;color: rgb(65, 54, 47); font-family: Roboto, Helvetica, Arial, sans-serif; text-align: start; background-color: rgb(255, 255, 255);&quot;&gt;&lt;font style=&quot;font-size: 18px;&quot;&gt;Debian Linux, RedHat Enterprise Linux, Yocto Linux&lt;/font&gt;&lt;/span&gt;" style="rounded=1;whiteSpace=wrap;html=1;fontSize=14;" vertex="1" parent="1">
          <mxGeometry x="682" y="846" width="350" height="60" as="geometry" />
        </mxCell>
        <mxCell id="2XYO7jUWF8z6qgWEu6B7-19" value="" style="endArrow=none;dashed=1;html=1;rounded=0;exitX=0;exitY=0.75;exitDx=0;exitDy=0;entryX=1;entryY=0.75;entryDx=0;entryDy=0;" edge="1" parent="1">
          <mxGeometry width="50" height="50" relative="1" as="geometry">
            <mxPoint x="660" y="830" as="sourcePoint" />
            <mxPoint x="1060" y="830" as="targetPoint" />
          </mxGeometry>
        </mxCell>
        <mxCell id="2XYO7jUWF8z6qgWEu6B7-20" value="&lt;font style=&quot;font-size: 18px;&quot;&gt;Docker Engine/Runtime&lt;/font&gt;" style="rounded=1;whiteSpace=wrap;html=1;fontSize=14;" vertex="1" parent="1">
          <mxGeometry x="682" y="757" width="350" height="60" as="geometry" />
        </mxCell>
        <mxCell id="2XYO7jUWF8z6qgWEu6B7-22" value="" style="endArrow=none;dashed=1;html=1;rounded=0;exitX=0;exitY=0.75;exitDx=0;exitDy=0;entryX=1.003;entryY=0.706;entryDx=0;entryDy=0;entryPerimeter=0;" edge="1" parent="1" target="2XYO7jUWF8z6qgWEu6B7-32">
          <mxGeometry width="50" height="50" relative="1" as="geometry">
            <mxPoint x="660" y="740" as="sourcePoint" />
            <mxPoint x="1050" y="740" as="targetPoint" />
          </mxGeometry>
        </mxCell>
        <mxCell id="2XYO7jUWF8z6qgWEu6B7-23" value="&lt;font style=&quot;font-size: 18px;&quot;&gt;Safe Docker Image with safety certified CODESYS runtime&lt;/font&gt;" style="rounded=1;whiteSpace=wrap;html=1;fontSize=14;" vertex="1" parent="1">
          <mxGeometry x="75" y="786" width="350" height="60" as="geometry" />
        </mxCell>
        <mxCell id="2XYO7jUWF8z6qgWEu6B7-24" value="" style="endArrow=none;dashed=1;html=1;rounded=0;exitX=0;exitY=0.75;exitDx=0;exitDy=0;entryX=1.001;entryY=0.564;entryDx=0;entryDy=0;entryPerimeter=0;" edge="1" parent="1">
          <mxGeometry width="50" height="50" relative="1" as="geometry">
            <mxPoint x="660" y="732" as="sourcePoint" />
            <mxPoint x="1060.4" y="732.96" as="targetPoint" />
          </mxGeometry>
        </mxCell>
        <mxCell id="2XYO7jUWF8z6qgWEu6B7-25" value="&lt;font style=&quot;font-size: 18px;&quot;&gt;&amp;nbsp;Safety certified PLC Runtime , Running over container instance 1..n&lt;/font&gt;" style="rounded=1;whiteSpace=wrap;html=1;fontSize=14;" vertex="1" parent="1">
          <mxGeometry x="687" y="659" width="350" height="60" as="geometry" />
        </mxCell>
        <mxCell id="2XYO7jUWF8z6qgWEu6B7-26" value="" style="endArrow=none;dashed=1;html=1;rounded=0;exitX=0;exitY=0.75;exitDx=0;exitDy=0;entryX=0.998;entryY=0.42;entryDx=0;entryDy=0;entryPerimeter=0;" edge="1" parent="1">
          <mxGeometry width="50" height="50" relative="1" as="geometry">
            <mxPoint x="660" y="642" as="sourcePoint" />
            <mxPoint x="1059.1999999999998" y="640.8" as="targetPoint" />
          </mxGeometry>
        </mxCell>
        <mxCell id="2XYO7jUWF8z6qgWEu6B7-35" value="&lt;font style=&quot;font-size: 18px;&quot;&gt;PLC- Application&lt;/font&gt;" style="rounded=1;whiteSpace=wrap;html=1;fontSize=14;" vertex="1" parent="1">
          <mxGeometry x="684.5" y="572" width="350" height="60" as="geometry" />
        </mxCell>
        <mxCell id="2XYO7jUWF8z6qgWEu6B7-36" value="" style="endArrow=none;dashed=1;html=1;rounded=0;exitX=0;exitY=0.75;exitDx=0;exitDy=0;entryX=0.998;entryY=0.42;entryDx=0;entryDy=0;entryPerimeter=0;" edge="1" parent="1">
          <mxGeometry width="50" height="50" relative="1" as="geometry">
            <mxPoint x="657.5" y="555" as="sourcePoint" />
            <mxPoint x="1056.5" y="554" as="targetPoint" />
          </mxGeometry>
        </mxCell>
        <mxCell id="2XYO7jUWF8z6qgWEu6B7-40" value="" style="shape=link;html=1;rounded=0;" edge="1" parent="1" target="2XYO7jUWF8z6qgWEu6B7-39">
          <mxGeometry width="100" relative="1" as="geometry">
            <mxPoint x="240" y="925" as="sourcePoint" />
            <mxPoint x="600" y="925" as="targetPoint" />
          </mxGeometry>
        </mxCell>
        <mxCell id="2XYO7jUWF8z6qgWEu6B7-39" value="" style="triangle;whiteSpace=wrap;html=1;" vertex="1" parent="1">
          <mxGeometry x="400" y="906" width="40" height="40" as="geometry" />
        </mxCell>
        <mxCell id="2XYO7jUWF8z6qgWEu6B7-42" value="" style="endArrow=classic;html=1;rounded=0;entryX=1;entryY=0.5;entryDx=0;entryDy=0;exitX=0;exitY=0.5;exitDx=0;exitDy=0;" edge="1" parent="1" source="2XYO7jUWF8z6qgWEu6B7-43" target="2XYO7jUWF8z6qgWEu6B7-15">
          <mxGeometry width="50" height="50" relative="1" as="geometry">
            <mxPoint x="1150" y="880" as="sourcePoint" />
            <mxPoint x="1240" y="900" as="targetPoint" />
          </mxGeometry>
        </mxCell>
        <mxCell id="2XYO7jUWF8z6qgWEu6B7-43" value="Pre-requisite" style="text;html=1;align=center;verticalAlign=middle;whiteSpace=wrap;rounded=0;fontSize=17;" vertex="1" parent="1">
          <mxGeometry x="1160" y="856" width="150" height="40" as="geometry" />
        </mxCell>
        <mxCell id="2XYO7jUWF8z6qgWEu6B7-44" value="" style="endArrow=classic;html=1;rounded=0;entryX=0.995;entryY=0.644;entryDx=0;entryDy=0;entryPerimeter=0;exitX=0;exitY=0.5;exitDx=0;exitDy=0;" edge="1" parent="1" source="2XYO7jUWF8z6qgWEu6B7-45" target="2XYO7jUWF8z6qgWEu6B7-20">
          <mxGeometry width="50" height="50" relative="1" as="geometry">
            <mxPoint x="1140" y="800" as="sourcePoint" />
            <mxPoint x="1160" y="870" as="targetPoint" />
          </mxGeometry>
        </mxCell>
        <mxCell id="2XYO7jUWF8z6qgWEu6B7-45" value="Standard docker to provide deployment environment and Isolation" style="text;html=1;align=center;verticalAlign=middle;whiteSpace=wrap;rounded=0;fontSize=17;" vertex="1" parent="1">
          <mxGeometry x="1140" y="777" width="350" height="40" as="geometry" />
        </mxCell>
      </root>
    </mxGraphModel>
  </diagram>
</mxfile>
